<svg id="Component_66_3" data-name="Component 66 – 3" xmlns="http://www.w3.org/2000/svg" width="61.641" height="41.24" viewBox="0 0 61.641 41.24">
  <path id="Path_21722" data-name="Path 21722" d="M61.64,52a2.162,2.162,0,0,1-1.358,2.24H1.4A2.128,2.128,0,0,1,0,52.06a2.914,2.914,0,0,1,.291-1.3H61.357A2.923,2.923,0,0,1,61.64,52Z" transform="translate(0 -13)" fill="#f6f6f6"/>
  <circle id="Ellipse_310" data-name="Ellipse 310" cx="2.26" cy="2.26" r="2.26" transform="translate(28.56)" fill="#f6f6f6"/>
  <path id="Path_21723" data-name="Path 21723" d="M42.74,4a2.14,2.14,0,0,0-.63,1.39,4.45,4.45,0,0,0,.18,1.4,8.71,8.71,0,0,0,.5,1.4,7.35,7.35,0,0,0,.86,1.4H39a7.35,7.35,0,0,0,.86-1.4,8.71,8.71,0,0,0,.5-1.4,4.45,4.45,0,0,0,.18-1.4A2.14,2.14,0,0,0,39.9,4Z" transform="translate(-10.501)" fill="#f6f6f6"/>
  <path id="Path_21724" data-name="Path 21724" d="M60.53,34.75H1.12C1.112,21.9,10.925,10.789,24.651,8.118s27.62,3.824,33.315,15.572c.044.081.089.169.126.25l.052.237L47.756,26.12h-.044L33.917,28.78c-.576.1-1.145.2-1.721.318l-.606.122-.318.061-.392.068-.325.054-.421.041h-.34a2.041,2.041,0,0,1-.48-.047.579.579,0,0,1-.4-.25,5.235,5.235,0,0,1,.192-1.787,1.511,1.511,0,0,1,.066-.4,10.851,10.851,0,0,1,.576-1.787c.34-.941.347-1,.332-1.1a2.055,2.055,0,0,0-.739-1.245,1.354,1.354,0,0,0-.968-.406q-1.153,0-3.376,1.909l-1.293,1.151Q21.8,27.21,21.157,27.21c-.177,0-.266-.095-.266-.3a2.679,2.679,0,0,1,.185-.853l.384-1.293c.148-.487.273-.995.392-1.523a6.08,6.08,0,0,0,.185-1.408q0-.616-1-1.117a3.483,3.483,0,0,0-1.478-.278,6.264,6.264,0,0,0-3.014,1.171c-.554.352-1.123.751-1.714,1.2s-2.032,1.638-4.315,3.547a1.513,1.513,0,0,1-.805.426.332.332,0,0,1-.244-.095.325.325,0,0,1-.118-.264A18.616,18.616,0,0,1,10.5,24.09a3.588,3.588,0,0,0,.547-1.469q0-1.117-1.995-1.117A4.649,4.649,0,0,0,5.6,23a7.465,7.465,0,0,0-1.219,1.618,11.831,11.831,0,0,0-.894,1.976,13.511,13.511,0,0,0-.554,2.234,12.988,12.988,0,0,0-.192,2.1,2.052,2.052,0,0,0,.842,1.652,2.378,2.378,0,0,0,1.537.677q1.6,0,4.167-1.936l1.67-1.354,3.177-2.64c.332-.278.628-.508.864-.677a1.18,1.18,0,0,1,.5-.264c.081,0,.126,0,.126.1a8.351,8.351,0,0,1-.547,1.7l-1.153,2.992a5.764,5.764,0,0,0-.325,1.3A1.093,1.093,0,0,0,14.2,33.5a1.936,1.936,0,0,0,.606.23,3.73,3.73,0,0,0,.739.074,3.3,3.3,0,0,0,.783-.095,26.043,26.043,0,0,0,4.751-2.829l3.886-2.5a5.936,5.936,0,0,0,.414,2.349c.465,1.13,1.389,1.448,2.675,1.7a5.986,5.986,0,0,0,1.714.041h0l14.851-2.626,14.526-2.572h.266a1.124,1.124,0,0,0,.074.257A24.833,24.833,0,0,1,60.53,34.75Z" transform="translate(0)" fill="#f6f6f6"/>
</svg>
